<?xml version="1.0" standalone="no"?><!DOCTYPE svg PUBLIC "-//W3C//DTD SVG 1.1//EN" "http://www.w3.org/Graphics/SVG/1.1/DTD/svg11.dtd"><svg t="1582869535394" class="icon" viewBox="0 0 1026 1024" version="1.1" xmlns="http://www.w3.org/2000/svg" p-id="953" xmlns:xlink="http://www.w3.org/1999/xlink" width="200.390625" height="200"><defs><style type="text/css"></style></defs><path d="M2.471176 170.666667v256s176.956933-85.333333 176.956933 85.333333c0 170.675307-176.956933 85.333333-176.956933 85.333333v256h265.426758s-88.469826 170.666667 88.478467 170.666667c176.965573 0 88.478466-170.666667 88.478466-170.666667h265.435399V597.333333s176.956933 85.341974 176.956933-85.333333c0-170.658026-176.956933-85.333333-176.956933-85.333333V170.666667h-265.435399s88.478466-170.666667-88.478466-170.666667c-176.948292 0-88.478466 170.666667-88.478467 170.666667H2.471176z" fill="#EA186B" p-id="954"></path><path d="M346.526259 413.144323c23.502093-39.262319 70.54084-72.156609 101.568786-104.567031 19.596598 38.795734 45.552585 117.000675 50.978804 159.917915-47.82503-16.935331-108.135547-29.08384-152.54759-55.350884zM478.284866 303.980559c52.637775 2.324288 115.220737 27.027407 167.83259 40.022681-23.502093 39.262319-81.073579 94.215742-116.853786 119.895234-16.192251-48.136087-45.120562-108.092345-50.978804-159.917915zM381.839881 614.450115c-24.029162-50.261644-32.315377-117.596868-47.09923-171.003645 42.312407 6.022411 120.586472 34.968003 157.628189 57.346834-33.654651 35.261779-69.81504 87.009586-110.528959 113.656811zM229.646551 768.941812c-18.637505-52.983394-21.056838-124.811665-29.835561-179.721885 39.080869 7.655461 112.421223 37.568786 147.302821 61.044958-36.894829 36.886189-74.601863 90.932361-117.46726 118.676927zM401.471041 642.583502c24.288376-45.751316 83.199136-84.633455 119.013906-120.983934 49.604968 98.216282 100.289996 195.879573 149.903604 294.095855-90.206561-57.934386-179.799649-114.641825-268.91751-173.111921zM378.781153 664.694478c87.752666 53.078439 176.585392 105.603888 264.329418 158.682328-129.892264-10.480896-259.784528-20.970433-388.596733-31.99568 38.90806-40.964493 77.695153-95.555016 124.267315-126.686648zM540.867828 497.604968c44.533009 96.211692 88.599433 194.1774 133.132442 290.389092-2.393412-138.800594-5.866883-277.056838-8.260294-415.857432-39.512893 39.737546-91.805049 78.325908-124.872148 125.46834zM205.435939 557.45754c24.115566-38.052653 70.54084-72.156609 101.568786-104.567031 19.130012 40.558391 40.774403 120.940732 45.120562 164.393682-45.664912-18.024031-104.428784-32.470906-146.689348-59.826651z" fill="#FFFFFF" p-id="955"></path><path d="M296.247334 247.903875c15.933036 7.378966 30.829216 23.985959 44.645335 34.510058-13.332253 9.029297-40.964493 22.067774-56.629675 25.852302 3.594438-18.90536 4.717699-42.381531 11.98434-60.36236zM344.297016 293.732955c2.108276 20.158229-3.551235 44.999595-5.417578 65.572567-15.933036-7.378966-39.63386-27.113811-51.212096-39.720265 17.004455-8.096125 37.681112-21.532064 56.629674-25.852302zM223.330363 269.45322c17.341434-11.180775 41.932226-17.039017 60.975834-24.824085 0.146888 16.373701-6.203861 47.367085-12.442284 62.384231-15.025786-11.414068-36.315917-23.113271-48.53355-37.560146zM157.256649 217.653571c18.663426-9.228028 45.250169-13.038477 65.192386-18.594303-0.639395 15.198596-7.63818 44.3602-14.403673 58.599703-15.803429-12.580532-38.044012-24.780883-50.788713-40.0054zM213.972729 278.059133c18.395572 7.422168 36.18631 28.306197 51.739165 40.497908-33.749696 22.854057-67.222897 46.096935-100.972593 68.950992 16.460105-36.704739 32.505468-73.124342 49.233428-109.4489zM204.459565 270.308627c-14.792494 35.581477-29.325773 71.543135-44.126907 107.124612-3.430269-49.924666-6.860537-99.857972-10.022951-149.393817 17.436479 13.176725 39.936276 25.765897 54.149858 42.269205zM275.786688 325.365735c-33.283111 20.840826-67.257459 41.569326-100.540569 62.410153 51.514513-6.488997 102.761172-13.366815 154.275685-19.855812-17.021736-13.46186-34.328608-31.840151-53.735116-42.554341zM234.580262 199.923316c15.518294 7.664102 30.829216 23.985959 44.645335 34.510058-14.014851 8.925611-42.701229 20.400162-58.625624 23.804509 4.130147-18.127717 6.18658-41.111381 13.980289-58.314567z" fill="#FFFFFF" p-id="956"></path></svg>