<?xml version="1.0" standalone="no"?><!DOCTYPE svg PUBLIC "-//W3C//DTD SVG 1.1//EN" "http://www.w3.org/Graphics/SVG/1.1/DTD/svg11.dtd"><svg t="1582869555863" class="icon" viewBox="0 0 1024 1024" version="1.1" xmlns="http://www.w3.org/2000/svg" p-id="1082" xmlns:xlink="http://www.w3.org/1999/xlink" width="200" height="200"><defs><style type="text/css"></style></defs><path d="M170.66 137.49v246.9S0 302.09 0 466.69C0 631.3 170.66 549 170.66 549v246.9h256s-85.33 164.61 85.33 164.61c170.67 0 85.34-164.61 85.34-164.61h256V549s170.66 82.3 170.66-82.31c0-164.59-170.66-82.3-170.66-82.3v-246.9" fill="#006837" p-id="1083"></path><path d="M170.62 626.46v22c0 36.57 26.78 66.01 60.04 66.01h562.68c33.26 0 60.04-29.44 60.04-66.01v-22H170.62zM512 219.12c-188.54 0-341.38 110.1-341.38 245.92h682.75c0.01-135.81-152.83-245.92-341.37-245.92" fill="#FF6600" p-id="1084"></path><path d="M194.17 537.74h635.67c13 0 23.54 11.59 23.54 25.89v27.18c0 14.3-10.54 25.89-23.54 25.89H194.17c-13 0-23.54-11.59-23.54-25.89v-27.18c-0.01-14.3 10.53-25.89 23.54-25.89z" fill="#502D16" p-id="1085"></path><path d="M187.12 501.47c-9.14 0-16.5 8.09-16.5 18.14s7.36 18.14 16.5 18.14h556.76l38.3 42.11c6.46 7.11 16.87 7.11 23.33 0l41.78-45.94c0.34-0.37 0.66-0.77 0.96-1.16 3.15-3.3 5.12-7.95 5.12-13.14 0-10.05-7.36-18.14-16.5-18.14H187.12z" fill="#FFC900" p-id="1086"></path><path d="M183.22 473.76h657.56c6.96 6.83 12.6 13.03 12.6 20.68s-5.64 13.85-12.6 13.85H183.22c-6.96 0-12.6-6.2-12.6-13.85 0-7.65 5.64-13.85 12.6-20.68z" fill="#5A9D2C" p-id="1087"></path><path d="M699.06 495.19l0.5 4.78-23.07-1.29 0.13 5.36-23.36-0.93v0.76l-23.72-0.16s0.03 0.61 0.03 0.71l-21.43-0.63-1.44-0.04v0.01l-23.98-0.5-0.03 1.22-22.4-1.56-0.24 1.06-21.43-0.02-23.57-0.54h-0.04l-2.77-0.06v0.07l-24.16 0.1 0.13 1.61-21.22-0.67 0.37-0.86-24.95-0.11-0.13 0.59-24.09-0.25-0.07 0.78-18.84-0.18-25.15-0.8h-0.09l-3.37-0.11v0.04l-22.5-0.44-0.16 0.83-23.72-0.6-0.14 1.06-20.38-0.12-23.97-0.79h-0.02l-3.43-0.11v0.09l-22.22-0.12-21.9-0.1-2.58-0.01v0.08l-18.87 0.53-28.1-0.35-0.29 4.81c-3.25 0.01-5.87 2.9-5.87 6.47s2.64 6.47 5.89 6.47c3.25 0 5.89-2.9 5.89-6.47v-0.07c0.03-3.55 2.66-6.4 5.88-6.4 3.25 0 5.88 2.89 5.89 6.46v0.01c0 3.57 2.64 6.47 5.89 6.47s5.89-2.9 5.89-6.47v-0.04c0.02-3.56 2.65-6.43 5.88-6.43 3.25 0 5.88 2.89 5.89 6.46v0.01c0 3.57 2.64 6.47 5.89 6.47s5.89-2.9 5.89-6.47v-0.03c0.02-3.56 2.65-6.43 5.88-6.44 3.24 0 5.87 2.88 5.89 6.44v0.03c0 3.57 2.64 6.47 5.89 6.47s5.89-2.9 5.89-6.47v-0.01c0.01-3.57 2.64-6.46 5.89-6.46 3.25 0 5.88 2.89 5.89 6.46v0.01c0 3.57 2.64 6.47 5.89 6.47s5.89-2.9 5.89-6.47v-0.02c0.01-3.56 2.64-6.45 5.89-6.45 3.25 0 5.89 2.9 5.89 6.47v0.04c0.02 3.56 2.65 6.43 5.89 6.43 3.25 0 5.89-2.9 5.89-6.47s2.64-6.47 5.89-6.47c3.25 0 5.88 2.9 5.89 6.47 0 3.57 2.64 6.47 5.89 6.47s5.89-2.9 5.89-6.47v-0.02c0.01-3.57 2.64-6.45 5.89-6.45 3.24 0 5.87 2.88 5.89 6.44v0.03c0 3.57 2.64 6.47 5.89 6.47s5.89-2.9 5.89-6.47v-0.02c0.01-3.57 2.64-6.45 5.89-6.45 3.25 0 5.89 2.9 5.89 6.47s2.64 6.47 5.89 6.47 5.89-2.9 5.89-6.47 2.64-6.47 5.89-6.47c3.24 0 5.88 2.89 5.89 6.45v0.02c0 3.57 2.64 6.47 5.89 6.47s5.89-2.9 5.89-6.47v-0.04c0.02-3.56 2.65-6.43 5.88-6.43 3.25 0 5.89 2.9 5.89 6.47v0.05c0.03 3.55 2.65 6.42 5.88 6.42 3.25 0 5.89-2.9 5.89-6.47s2.64-6.47 5.89-6.47c3.25 0 5.89 2.9 5.89 6.47v0.05c0.02 3.55 2.65 6.42 5.88 6.42 3.25 0 5.89-2.9 5.89-6.47s2.64-6.47 5.89-6.47c3.24 0 5.87 2.88 5.89 6.45v0.02c0 3.57 2.64 6.47 5.89 6.47 3.24 0 5.86-2.88 5.88-6.43v-0.04c0-3.57 2.64-6.47 5.89-6.47s5.89 2.9 5.89 6.47v0.01c0 3.57 2.64 6.46 5.89 6.46 3.25 0 5.89-2.9 5.89-6.47v-0.01c0.01-3.57 2.64-6.46 5.89-6.46 3.24 0 5.86 2.87 5.88 6.43v0.04c0 3.57 2.64 6.47 5.89 6.47 3.24 0 5.86-2.87 5.88-6.43v-0.04c0-3.57 2.64-6.47 5.89-6.47 3.25 0 5.89 2.9 5.89 6.47v0.03c0.02 3.56 2.65 6.44 5.89 6.44 3.25 0 5.89-2.9 5.89-6.47v-0.02c0.01-3.57 2.64-6.45 5.89-6.45 3.23 0 5.85 2.86 5.88 6.41v0.06c0 3.57 2.64 6.47 5.89 6.47 3.24 0 5.87-2.88 5.88-6.44v-0.03c0-3.57 2.64-6.47 5.89-6.47 3.25 0 5.89 2.9 5.89 6.47s2.64 6.47 5.89 6.47 5.89-2.9 5.89-6.47 2.64-6.47 5.89-6.47c3.25 0 5.88 2.89 5.89 6.46v0.01c0 3.57 2.64 6.47 5.89 6.47s5.89-2.9 5.89-6.47 2.64-6.47 5.89-6.47 5.89 2.9 5.89 6.47 2.64 6.47 5.89 6.47c3.24 0 5.87-2.88 5.88-6.44v-0.03c0-3.57 2.64-6.47 5.89-6.47 3.25 0 5.89 2.9 5.89 6.47s2.64 6.47 5.89 6.47 5.89-2.9 5.89-6.47 2.64-6.47 5.89-6.47c3.24 0 5.87 2.88 5.89 6.44v0.03c0 3.57 2.64 6.47 5.89 6.47s5.89-2.9 5.89-6.47v-0.04c0.02-3.56 2.65-6.42 5.88-6.43 3.25 0 5.89 2.9 5.89 6.47v0.01c0.01 3.57 2.64 6.46 5.89 6.46 3.25 0 5.89-2.9 5.89-6.47s2.64-6.47 5.89-6.47c3.25 0 5.89 2.9 5.89 6.47s2.64 6.47 5.89 6.47 5.89-2.9 5.89-6.47 2.64-6.47 5.89-6.47c3.25 0 5.88 2.89 5.89 6.46v0.01c0 3.57 2.64 6.47 5.89 6.47s5.89-2.9 5.89-6.47v-0.02c0.01-3.57 2.64-6.45 5.89-6.45 3.24 0 5.87 2.88 5.89 6.44v0.03c0 3.57 2.64 6.47 5.89 6.47s5.89-2.9 5.89-6.47v-0.01c0.01-3.57 2.64-6.46 5.89-6.46 3.25 0 5.88 2.89 5.89 6.46v0.01c0 3.57 2.64 6.47 5.89 6.47 3.22 0 5.84-2.85 5.88-6.39h0.01v-0.09c0-3.57 2.64-6.47 5.89-6.47 3.25 0 5.89 2.9 5.89 6.47s2.64 6.47 5.89 6.47 5.89-2.9 5.89-6.47 2.64-6.47 5.89-6.47 5.89 2.9 5.89 6.47v0.04c0.02 3.56 2.65 6.42 5.88 6.43 3.25 0 5.89-2.9 5.89-6.47 0-3.14-2.05-5.82-4.86-6.37l-4.72-7.89-19.17 0.54-0.11 1.14-23.02-1.11-0.13 0.92-7.18 0.66-13.85 3.22 0.27-1.61-16.3-3.15-9.48 4.71 1.04-9.96-24.35-0.29-0.36 2.52-26.56-2.93z" fill="#5A9D2C" p-id="1088"></path><path d="M515.03 516.92l5.46-17.72-10.02-3.85-6.95 11.37 7.21 8.98 4.3 1.22z" fill="#5A9D2C" p-id="1089"></path><path d="M508.97 516.92l-5.46-17.72 10.02-3.85 6.95 11.37-7.21 8.98-4.3 1.22z" fill="#5A9D2C" p-id="1090"></path></svg>