<?xml version="1.0" standalone="no"?><!DOCTYPE svg PUBLIC "-//W3C//DTD SVG 1.1//EN" "http://www.w3.org/Graphics/SVG/1.1/DTD/svg11.dtd"><svg t="1582869564417" class="icon" viewBox="0 0 1024 1024" version="1.1" xmlns="http://www.w3.org/2000/svg" p-id="1218" xmlns:xlink="http://www.w3.org/1999/xlink" width="200" height="200"><defs><style type="text/css"></style></defs><path d="M601.69 333.62a70.973 70.973 0 0 0-2.93 3.81c1.9 5.38 3.58 10.77 5.06 16.13 1.29-2.37 2.66-4.64 4.12-6.78 0 0 11.81 55 61.97 67.91 50.16 12.91 49.11 38.1 53.34 56.2 1.75 7.52 8.19 18.99 16.96 30.41-1.77 2.13-3.36 4.65-5.32 6.42-32.36 29.01-92.21 26.76-122.3-4.6-7.95-8.28-13.94-20.19-17.95-33.97-2.52 5.17-5.31 10.2-8.33 15.09 4.31 10.97 9.95 20.52 16.95 27.81 36.41 37.92 101.09 40.4 140.26 5.27 38.97-34.94 46.47-133.21 14.99-177.82l-156.82-5.88z" fill="#BB2DE6" p-id="1219"></path><path d="M1024 314.48V18.19H716.81S819.2 215.71 614.39 215.71C409.6 215.71 512 18.19 512 18.19H204.81v296.29S0 215.71 0 413.24C0 610.76 204.81 512 204.81 512v296.29H512s-102.4 197.52 102.39 197.52c204.81 0 102.42-197.52 102.42-197.52H1024V512s-204.8 98.76-204.8-98.76c0-197.53 204.8-98.76 204.8-98.76zM760.77 536.54c-21.34 19.12-48.18 29.73-76.44 31.52l-3.29 87.78 46.23-32.18c8.15-5.66 19.31-3.66 24.99 4.48 5.66 8.13 3.66 19.3-4.47 24.96l-65.16 45.36 61.33 2.3c7.14 0.28 12.69 6.26 12.43 13.4-0.27 7.13-6.26 12.68-13.38 12.42l-84.47-3.17-5.87-0.21-5.26-0.2-2.67 1.87-73.6 51.24c-8.15 5.66-19.31 3.66-24.97-4.47-5.68-8.14-3.68-19.3 4.47-24.96l37.23-25.92c-6.99-0.43-12.39-6.33-12.13-13.36 0.26-7.14 6.25-12.69 13.38-12.42l33.94 1.27 1.17-0.82-103.47-148.62c-34.41 19.07-73.69 26.84-113.06 20.5-92.84-15-192.15-149.67-180.09-244.24l0.99-7.9L434.39 171.9l7.76 1.78c57.55 13.38 114.7 72.22 145.51 136.99l3.19-3.29 180.38 6.76 3.69 4.39c44.06 52.62 36.24 172.84-14.15 218.01z m46.85-262.37c-2.53 6.6-16.78 4.79-36.66 4.65-15.42-0.1-40.11 7.16-37.59 0.56 2.53-6.6 38.34-32.66 52.74-27.15 14.41 5.52 24.04 15.33 21.51 21.94z m-28.91-36.56c-26.56 9.96-64.2 38.68-64.2 25.68s44.4-81.32 72.76-81.32c28.37 0 51.36 10.54 51.36 23.54 0.01 13-25.67 19.26-59.92 32.1z" fill="#BB2DE6" p-id="1220"></path><path d="M441.46 210.67L262.55 335.23c-3.36 75.78 79.11 185.08 150.88 196.66 55.25 8.92 111.52-19.14 141.15-65.01-2.15-10.3-3.51-21.03-4.08-31.91-20.31 50.52-80.73 87.86-134.18 79.21-60.12-9.7-132.61-101.91-135.84-169.58 0 0 59.07 51.15 125.51 23.55s86.34 1.23 106.16 17.77c7.45 6.23 21.88 12.83 38.85 17.99 1.73-20.2 6.18-39.85 13.34-56.99-21.67-59.45-72.66-120.12-122.88-136.25zM550.21 526.28L653.67 674.9l0.81-0.57 4.02-107.21c-28.05-3.94-54-16.49-73.89-37.18-6.04-6.29-11.28-13.78-15.72-22.15a185.342 185.342 0 0 1-18.68 18.49z" fill="#BB2DE6" p-id="1221"></path><path d="M603.82 353.55c-1.48-5.37-3.17-10.75-5.06-16.13-25.47 35.24-29.83 102.58-12.45 146.82 3.02-4.89 5.8-9.92 8.33-15.09-10.51-36.05-7.51-84.97 9.18-115.6z" fill="#F1F1F1" p-id="1222"></path><path d="M654.49 674.33l-0.81 0.57-103.47-148.62c6.7-5.75 12.94-11.93 18.69-18.49-6.43-12.1-11.2-26.04-14.31-40.91-29.62 45.88-85.9 73.93-141.15 65.01-71.78-11.58-154.24-120.88-150.88-196.66l178.91-124.56c50.22 16.13 101.2 76.8 122.89 136.25 5.76-13.78 13.26-25.94 22.51-35.44l0.8-0.82c-30.82-64.77-87.96-123.61-145.51-136.99l-7.76-1.78-205.8 143.27-0.99 7.9c-12.06 94.58 87.25 229.25 180.09 244.24 39.37 6.34 78.65-1.43 113.06-20.5l103.47 148.62-1.17 0.82 30.57 1.15 0.86-23.06zM587.85 720.75l-37.23 25.92c-8.15 5.66-10.15 16.83-4.47 24.96 5.66 8.13 16.82 10.13 24.97 4.47l73.6-51.24 2.67-1.87-59.25-2.22c-0.09 0-0.19-0.02-0.29-0.02zM682.63 698.46l65.16-45.36c8.13-5.66 10.13-16.83 4.47-24.96-5.68-8.14-16.84-10.13-24.99-4.48l-46.23 32.18-1.59 42.5 3.18 0.12z" fill="#F1F1F1" p-id="1223"></path><path d="M406 368.15c-66.45 27.61-125.51-23.55-125.51-23.55 3.22 67.67 75.72 159.88 135.84 169.58 53.45 8.65 113.86-28.69 134.18-79.21-0.54-10.32-0.37-20.76 0.51-31.06-16.97-5.16-31.4-11.76-38.85-17.99-19.83-16.54-39.73-45.37-106.17-17.77z" fill="#F1F1F1" p-id="1224"></path><path d="M771.24 314.13l-180.38-6.76-3.19 3.29-0.8 0.82c-9.25 9.49-16.75 21.65-22.51 35.44-7.16 17.14-11.62 36.79-13.34 56.99-0.88 10.3-1.05 20.74-0.51 31.06 0.57 10.87 1.93 21.61 4.08 31.91 3.11 14.87 7.88 28.81 14.31 40.91 4.45 8.36 9.68 15.85 15.72 22.15 19.89 20.7 45.84 33.24 73.89 37.18l-4.02 107.21-0.86 23.06-30.57-1.15-33.94-1.27c-7.14-0.28-13.12 5.28-13.38 12.42-0.26 7.03 5.13 12.93 12.13 13.36l0.29 0.03 59.25 2.22 5.26 0.2 5.87 0.21 84.47 3.17c7.13 0.27 13.12-5.29 13.38-12.42 0.26-7.14-5.29-13.12-12.43-13.4l-61.33-2.3-3.18-0.12 1.59-42.5 3.29-87.78c28.26-1.8 55.1-12.4 76.44-31.52 50.39-45.17 58.2-165.39 14.16-218.02l-3.69-4.39z m-27.72 203.19c-39.17 35.13-103.85 32.65-140.26-5.27-7-7.28-12.64-16.84-16.95-27.81-17.38-44.24-13.02-111.58 12.45-146.82 0.95-1.31 1.92-2.59 2.93-3.81l156.83 5.88c31.47 44.62 23.97 142.89-15 177.83z" fill="#842780" p-id="1225"></path><path d="M594.64 469.15c4.02 13.78 10 25.69 17.95 33.97 30.09 31.36 89.93 33.6 122.3 4.6 1.97-1.78 3.55-4.29 5.32-6.42-8.77-11.42-15.21-22.89-16.96-30.41-4.23-18.09-3.18-43.29-53.34-56.2-50.16-12.91-61.97-67.91-61.97-67.91a79.298 79.298 0 0 0-4.12 6.78c-16.69 30.62-19.69 79.54-9.18 115.59z" fill="#842780" p-id="1226"></path><path d="M787.27 181.96c-28.37 0-72.76 68.32-72.76 81.32s37.64-15.72 64.2-25.68c34.24-12.84 59.92-19.1 59.92-32.1 0.01-13-22.99-23.54-51.36-23.54zM786.12 252.23c-14.4-5.51-50.22 20.55-52.74 27.15-2.53 6.6 22.17-0.67 37.59-0.56 19.88 0.13 34.13 1.95 36.66-4.65s-7.11-16.42-21.51-21.94z" fill="#F1F1F1" p-id="1227"></path></svg>