<?xml version="1.0" standalone="no"?><!DOCTYPE svg PUBLIC "-//W3C//DTD SVG 1.1//EN" "http://www.w3.org/Graphics/SVG/1.1/DTD/svg11.dtd"><svg t="1582874700284" class="icon" viewBox="0 0 1024 1024" version="1.1" xmlns="http://www.w3.org/2000/svg" p-id="1220" xmlns:xlink="http://www.w3.org/1999/xlink" width="200" height="200"><defs><style type="text/css"></style></defs><path d="M410.88 301.013333a106.666667 106.666667 0 0 1-106.666667-106.666666V107.306667a106.666667 106.666667 0 0 1 106.666667 106.666666v87.04z" fill="#FBDEB5" p-id="1221"></path><path d="M367.786667 231.466667v87.04a106.666667 106.666667 0 0 1-106.666667 106.666666v-86.613333a106.666667 106.666667 0 0 1 106.666667-107.093333zM474.88 106.666667v87.04a106.666667 106.666667 0 0 1-106.666667 106.666666V213.333333a106.666667 106.666667 0 0 1 106.666667-106.666666z" fill="#F4D5E6" p-id="1222"></path><path d="M458.026667 384a106.666667 106.666667 0 0 1-106.666667-106.666667V189.866667a106.666667 106.666667 0 0 1 106.666667 106.666666V384z" fill="#FBDEB5" p-id="1223"></path><path d="M308.693333 247.04a117.76 117.76 0 0 1-11.946666-51.84V97.493333h10.666666a117.12 117.12 0 0 1 116.266667 98.773334l-21.333333 3.413333a96.213333 96.213333 0 0 0-85.333334-80.426667v75.946667a93.866667 93.866667 0 0 0 9.813334 42.666667z" fill="#952D2E" p-id="1224"></path><path d="M488.533333 207.786667l-21.333333-2.346667a82.56 82.56 0 0 0 0-10.24V119.253333a96.853333 96.853333 0 0 0-80.853333 64 120.746667 120.746667 0 0 0-3.2 12.586667L362.666667 192a90.24 90.24 0 0 1 4.053333-15.36 117.76 117.76 0 0 1 111.573333-79.573333h10.666667v98.133333a83.2 83.2 0 0 1-0.426667 12.586667z" fill="#952D2E" p-id="1225"></path><path d="M363.733333 339.2a117.333333 117.333333 0 0 1-17.706666-61.866667V179.2h10.666666a117.973333 117.973333 0 0 1 117.76 117.76v35.413333h-21.333333v-35.413333a96.64 96.64 0 0 0-85.333333-96V277.333333a95.573333 95.573333 0 0 0 14.506666 50.986667z" fill="#952D2E" p-id="1226"></path><path d="M631.04 425.6a106.666667 106.666667 0 0 1-106.666667-106.666667V230.4a106.666667 106.666667 0 0 1 106.666667 106.666667v88.533333zM306.986667 425.6a106.666667 106.666667 0 0 1-106.666667-106.666667V230.4a106.666667 106.666667 0 0 1 106.666667 106.666667v88.533333z" fill="#FBDEB5" p-id="1227"></path><path d="M553.6 189.866667V277.333333a106.666667 106.666667 0 0 1-106.666667 106.666667v-87.04a106.666667 106.666667 0 0 1 106.666667-107.093333zM828.373333 189.866667V277.333333a106.666667 106.666667 0 0 1-106.666666 106.666667v-87.04a106.666667 106.666667 0 0 1 106.666666-107.093333z" fill="#F4D5E6" p-id="1228"></path><path d="M638.506667 301.013333a106.666667 106.666667 0 0 1-106.666667-106.666666V107.306667a106.666667 106.666667 0 0 1 106.666667 106.666666v87.04z" fill="#FBDEB5" p-id="1229"></path><path d="M704 106.666667v87.04a106.666667 106.666667 0 0 1-106.666667 106.666666V213.333333a106.666667 106.666667 0 0 1 106.666667-106.666666z" fill="#F4D5E6" p-id="1230"></path><path d="M192 338.773333a106.666667 106.666667 0 0 1-1.92-21.333333v-96.64h10.666667a117.973333 117.973333 0 0 1 117.973333 117.76h-21.333333a96.853333 96.853333 0 0 0-85.333334-96v75.946667a109.653333 109.653333 0 0 0 1.493334 16.64zM535.893333 339.2l-18.133333-11.306667A97.493333 97.493333 0 0 0 533.333333 277.333333V200.96a96.853333 96.853333 0 0 0-85.333333 96v36.48h-21.333333v-36.48a117.973333 117.973333 0 0 1 116.266666-117.76H554.666667V277.333333a119.253333 119.253333 0 0 1-18.773334 61.866667z" fill="#952D2E" p-id="1231"></path><path d="M650.666667 238.933333h-21.333334V213.333333a96.853333 96.853333 0 0 0-85.333333-96v76.373334h-21.333333V96h10.666666a118.186667 118.186667 0 0 1 117.333334 117.333333z" fill="#952D2E" p-id="1232"></path><path d="M607.573333 268.8h-21.333333V213.333333A117.973333 117.973333 0 0 1 704 96h10.666667v97.706667a99.84 99.84 0 0 1 0 14.08l-21.333334-2.346667a105.173333 105.173333 0 0 0 0-11.733333V117.973333a96.64 96.64 0 0 0-85.333333 96z" fill="#952D2E" p-id="1233"></path><path d="M631.04 338.56h-21.333333a96.213333 96.213333 0 0 0-74.026667-93.866667l5.12-21.333333a117.546667 117.546667 0 0 1 90.24 115.2zM810.666667 339.2l-18.133334-11.306667a95.786667 95.786667 0 0 0 14.506667-50.56V200.96a96.853333 96.853333 0 0 0-85.333333 96v36.48h-21.333334v-36.48a117.973333 117.973333 0 0 1 117.333334-117.76h10.666666V277.333333a117.546667 117.546667 0 0 1-17.706666 61.866667z" fill="#952D2E" p-id="1234"></path><path d="M757.12 380.373333a106.666667 106.666667 0 0 1-106.666667-106.666666V186.666667a106.666667 106.666667 0 0 1 106.666667 106.666666v87.04z" fill="#FBDEB5" p-id="1235"></path><path d="M764.373333 332.373333h-21.333333v-35.413333A96.853333 96.853333 0 0 0 646.4 200.533333v-21.333333a117.973333 117.973333 0 0 1 117.973333 117.76z" fill="#952D2E" p-id="1236"></path><path d="M695.04 231.466667v87.04a106.666667 106.666667 0 0 1-106.666667 106.666666v-86.613333a106.666667 106.666667 0 0 1 106.666667-107.093333z" fill="#F4D5E6" p-id="1237"></path><path d="M693.12 339.2l-21.333333-3.84a110.08 110.08 0 0 0 1.493333-16.853333v-75.946667a96.853333 96.853333 0 0 0-85.333333 96h-21.333334a117.973333 117.973333 0 0 1 117.973334-117.76h10.666666v97.706667a113.28 113.28 0 0 1-2.133333 20.693333zM274.986667 338.56h-21.333334a117.76 117.76 0 0 1 111.36-117.76l1.066667 21.333333a96.64 96.64 0 0 0-91.093333 96.426667z" fill="#952D2E" p-id="1238"></path><path d="M594.773333 917.333333h-166.613333a21.333333 21.333333 0 0 1-21.333333-23.893333l27.733333-178.133333S234.666667 484.906667 171.733333 365.44a21.333333 21.333333 0 0 1 18.56-30.08H832a21.333333 21.333333 0 0 1 18.56 30.08C789.333333 485.546667 586.666667 715.306667 586.666667 715.306667l28.586666 177.92a21.333333 21.333333 0 0 1-20.48 24.106666z" fill="#D8E1F3" p-id="1239"></path><path d="M428.8 709.546667h166.186667v20.693333H428.8z" fill="#952D2E" p-id="1240"></path><path d="M491.52 729.386667v64h-21.333333v-64z" fill="#952D2E" p-id="1241"></path><path d="M595.2 928h-166.613333a31.573333 31.573333 0 0 1-31.146667-36.266667l27.093333-173.226666c-27.093333-31.146667-202.88-234.666667-261.76-347.946667a31.36 31.36 0 0 1 27.946667-45.866667h642.56a31.36 31.36 0 0 1 27.946667 45.866667c-59.093333 112.64-234.666667 316.586667-262.826667 347.946667l27.946667 173.013333A31.146667 31.146667 0 0 1 618.666667 917.333333a31.786667 31.786667 0 0 1-23.466667 10.666667z m-405.333333-581.973333a10.026667 10.026667 0 0 0-8.746667 4.906666 9.6 9.6 0 0 0 0 9.6c61.226667 116.906667 260.053333 345.386667 262.186667 347.733334l3.2 3.84L418.56 896a10.026667 10.026667 0 0 0 2.346667 8.106667 9.813333 9.813333 0 0 0 7.68 3.626666h166.613333a9.813333 9.813333 0 0 0 7.68-3.626666 9.386667 9.386667 0 0 0 2.346667-8.106667L576 712.106667l3.413333-3.84c1.92-2.346667 201.813333-230.186667 263.253334-347.733334a9.6 9.6 0 0 0 0-9.6 10.026667 10.026667 0 0 0-8.746667-4.906666z" fill="#952D2E" p-id="1242"></path></svg>